<?xml version="1.0" encoding="UTF-8"?>
<svg xmlns="http://www.w3.org/2000/svg" xmlns:xlink="http://www.w3.org/1999/xlink" width="20px" height="px" viewBox="0 0 20 20" version="1.1">
<g id="surface1">
<path style=" stroke:none;fill-rule:nonzero;fill:rgb(60.000002%,60.000002%,60.000002%);fill-opacity:1;" d="M 10.300781 20 C 8.800781 20 7.800781 20 6.800781 20 C 5.898438 20 5 20 4.101562 19.800781 C 3 19.5 2 19 1.199219 18.101562 C 0.5 17.199219 0.101562 16.199219 0 15 C 0 14.101562 0 13.199219 0 12.398438 C 0 10.699219 0 9 0 7.300781 C 0 6.5 0 5.601562 0.199219 4.800781 C 0.398438 3.199219 1.101562 2 2.398438 1.101562 C 3.199219 0.5 4.101562 0.199219 5 0.199219 C 7 -0.101562 9.101562 0 11.101562 0 C 12 0 12.800781 0 13.699219 0 C 14.601562 0 15.5 0.101562 16.398438 0.398438 C 17.398438 0.800781 18.199219 1.300781 18.800781 2.199219 C 19.5 3.101562 19.800781 4.101562 19.898438 5.199219 C 20.101562 7.800781 20 10.398438 20 13 C 20 13.800781 20 14.601562 19.800781 15.398438 C 19.601562 16.601562 19.101562 17.601562 18.199219 18.398438 C 17.5 19.101562 16.699219 19.5 15.699219 19.699219 C 15.101562 19.800781 14.601562 19.898438 14 19.898438 C 12.601562 20 11.300781 20 10.300781 20 Z M 18.101562 10 C 18.101562 8.800781 18.101562 7.5 18.101562 6.300781 C 18.101562 5.699219 18 5.101562 17.898438 4.5 C 17.699219 3.898438 17.398438 3.300781 16.898438 2.898438 C 16.199219 2.300781 15.398438 2 14.5 2 C 13.601562 1.898438 12.601562 1.898438 11.699219 1.898438 C 10.101562 1.898438 8.5 1.898438 6.898438 1.898438 C 6.300781 1.898438 5.601562 1.898438 5 2 C 4.101562 2.199219 3.300781 2.5 2.699219 3.300781 C 2.199219 3.898438 2 4.699219 1.898438 5.5 C 1.898438 6.300781 1.898438 7 1.898438 7.800781 C 1.898438 9.699219 1.898438 11.699219 1.898438 13.601562 C 1.898438 14.199219 2 14.699219 2.101562 15.300781 C 2.300781 16.101562 2.699219 16.699219 3.300781 17.199219 C 3.898438 17.699219 4.601562 17.898438 5.300781 18 C 6.101562 18.101562 6.800781 18.101562 7.601562 18.101562 C 9.601562 18.101562 11.601562 18.101562 13.601562 18.101562 C 14.101562 18.101562 14.601562 18.101562 15.101562 18 C 15.898438 17.898438 16.601562 17.5 17.199219 16.898438 C 17.699219 16.398438 17.898438 15.699219 18.101562 15.101562 C 18.300781 14.300781 18.199219 13.398438 18.300781 12.601562 C 18.199219 11.699219 18.101562 10.898438 18.101562 10 Z M 18.101562 10 "/>
<path style=" stroke:none;fill-rule:nonzero;fill:rgb(60.000002%,60.000002%,60.000002%);fill-opacity:1;" d="M 10 15.101562 C 7.199219 15.101562 4.898438 12.800781 4.898438 9.898438 C 4.898438 7.101562 7.199219 4.800781 10.101562 4.800781 C 12.898438 4.800781 15.199219 7.101562 15.199219 9.898438 C 15.199219 12.800781 12.800781 15.199219 10 15.101562 Z M 10 13.300781 C 11.800781 13.300781 13.300781 11.800781 13.300781 10 C 13.300781 8.199219 11.898438 6.699219 10 6.699219 C 8.199219 6.699219 6.699219 8.199219 6.699219 10 C 6.699219 11.898438 8.199219 13.300781 10 13.300781 Z M 10 13.300781 "/>
<path style=" stroke:none;fill-rule:nonzero;fill:rgb(60.000002%,60.000002%,60.000002%);fill-opacity:1;" d="M 16.5 4.699219 C 16.5 5.398438 16 5.898438 15.300781 5.898438 C 14.601562 5.898438 14.101562 5.300781 14.101562 4.699219 C 14.101562 4 14.601562 3.5 15.300781 3.5 C 16 3.5 16.5 4 16.5 4.699219 Z M 16.5 4.699219 "/>
</g>
</svg>
