<svg width="170" height="86" viewBox="0 0 170 86" fill="none" xmlns="http://www.w3.org/2000/svg">
<path d="M7.68 63V23.64H0.64V15H23.36V23.64H16.32V63H7.68ZM27.456 63L40.704 19.928L43.456 23.64H24.704V15H48.064V23.064L36.416 63H27.456ZM62.437 15V54.36H72.357V63H53.797V15H62.437Z" fill="white"/>
<rect y="15" width="62" height="9" fill="white"/>
<path d="M75.968 34.584L119.504 27.96L120.464 33.912L76.928 40.392L75.968 34.584ZM89.552 17.208H95.84V50.328C95.84 51.384 95.92 52.184 96.08 52.728C96.272 53.24 96.624 53.592 97.136 53.784C97.648 53.944 98.432 54.024 99.488 54.024C99.808 54.024 100.288 54.024 100.928 54.024C101.568 54.024 102.288 54.024 103.088 54.024C103.888 54.024 104.688 54.024 105.488 54.024C106.288 54.024 107.008 54.024 107.648 54.024C108.32 54.024 108.816 54.024 109.136 54.024C110.224 54.024 111.04 53.768 111.584 53.256C112.128 52.712 112.528 51.736 112.784 50.328C113.04 48.888 113.264 46.792 113.456 44.04C113.936 44.424 114.528 44.808 115.232 45.192C115.968 45.544 116.688 45.864 117.392 46.152C118.128 46.44 118.768 46.648 119.312 46.776C119.056 49.976 118.624 52.536 118.016 54.456C117.408 56.344 116.448 57.704 115.136 58.536C113.824 59.368 111.968 59.784 109.568 59.784C109.248 59.784 108.72 59.784 107.984 59.784C107.28 59.784 106.48 59.784 105.584 59.784C104.72 59.784 103.84 59.784 102.944 59.784C102.048 59.784 101.248 59.784 100.544 59.784C99.84 59.784 99.328 59.784 99.008 59.784C96.576 59.784 94.672 59.496 93.296 58.92C91.92 58.376 90.944 57.416 90.368 56.04C89.824 54.664 89.552 52.728 89.552 50.232V17.208ZM124.448 18.936H167.648V23.304H124.448V18.936ZM124.496 28.488H167.552V32.904H124.496V28.488ZM134.864 16.2H140.576V26.28H134.864V16.2ZM151.376 16.2H157.136V26.472H151.376V16.2ZM124.208 47.016H167.936V51.384H124.208V47.016ZM143.072 43.752H148.736V61.32H143.072V43.752ZM141.728 49.56L146 51.624C144.848 52.68 143.52 53.688 142.016 54.648C140.512 55.576 138.896 56.44 137.168 57.24C135.472 58.04 133.728 58.76 131.936 59.4C130.144 60.04 128.368 60.568 126.608 60.984C126.352 60.504 126.016 59.976 125.6 59.4C125.184 58.824 124.752 58.264 124.304 57.72C123.856 57.176 123.424 56.712 123.008 56.328C124.736 56.04 126.496 55.672 128.288 55.224C130.08 54.776 131.808 54.264 133.472 53.688C135.168 53.08 136.72 52.44 138.128 51.768C139.536 51.064 140.736 50.328 141.728 49.56ZM150.176 49.08C151.456 50.232 153.088 51.272 155.072 52.2C157.056 53.128 159.232 53.928 161.6 54.6C164 55.272 166.448 55.784 168.944 56.136C168.528 56.52 168.08 57 167.6 57.576C167.152 58.184 166.704 58.792 166.256 59.4C165.84 60.04 165.504 60.616 165.248 61.128C163.36 60.712 161.488 60.168 159.632 59.496C157.808 58.856 156.048 58.088 154.352 57.192C152.656 56.328 151.088 55.352 149.648 54.264C148.208 53.176 146.928 52.008 145.808 50.76L150.176 49.08ZM130.112 25.608H135.824V40.248H166.16V44.616H130.112V25.608ZM142.256 25.32H147.68V35.112H155.024V25.656H160.736V38.424H142.256V25.32Z" fill="white"/>
</svg>
